<?xml version="1.0" encoding="UTF-8"?>
<svg width="50px" height="7px" viewBox="0 0 50 7" version="1.1" xmlns="http://www.w3.org/2000/svg" xmlns:xlink="http://www.w3.org/1999/xlink">
    <!-- Generator: Sketch 46.2 (44496) - http://www.bohemiancoding.com/sketch -->
    <title>Page 1</title>
    <desc>Created with Sketch.</desc>
    <defs></defs>
    <g id="Page-1" stroke="none" stroke-width="1" fill="none" fill-rule="evenodd" stroke-linecap="round" stroke-linejoin="round">
        <g id="主页" transform="translate(-219.000000, -52.000000)" stroke="#CFE1FF" stroke-width="2">
            <path d="M268,53 L261.83347,53 C261.83347,53.0018497 261.833788,53.0040693 261.833788,53.0059189 C261.833788,55.7641314 259.90607,58 257.527998,58 C255.149606,58 253.222207,55.7641314 253.222207,53.0059189 L253.222207,53 L248.437676,53 C248.437676,53.0018497 248.437995,53.0040693 248.437995,53.0059189 C248.437995,55.7641314 246.510276,58 244.132204,58 C241.753812,58 239.826413,55.7641314 239.826413,53.0059189 L239.826413,53 L235.041882,53 C235.041882,53.0018497 235.042201,53.0040693 235.042201,53.0059189 C235.042201,55.7641314 233.114482,58 230.73641,58 C228.358019,58 226.430619,55.7641314 226.430619,53.0059189 L226.430619,53 L220,53" id="Page-1"></path>
        </g>
    </g>
</svg>